<?xml version="1.0" standalone="no"?>
<!DOCTYPE svg PUBLIC "-//W3C//DTD SVG 1.1//EN" "http://www.w3.org/Graphics/SVG/1.1/DTD/svg11.dtd" >
<svg xmlns="http://www.w3.org/2000/svg" xmlns:xlink="http://www.w3.org/1999/xlink" version="1.1">
<metadata>
Created by FontForge 20170731 at Thu Jun 23 05:50:49 2022
 By Aleksey,,,
</metadata>
<defs>
<font id="nx" horiz-adv-x="1000" >
  <font-face 
    font-family="nx"
    font-weight="400"
    font-stretch="normal"
    units-per-em="1000"
    panose-1="2 0 5 3 0 0 0 0 0 0"
    ascent="850"
    descent="-150"
    x-height="729"
    cap-height="779"
    bbox="-0.798817 -197 1670.32 897.009"
    underline-thickness="0"
    underline-position="0"
    unicode-range="U+0021-E800"
  />
<missing-glyph 
 />
    <glyph glyph-name=".notdef" 
 />
    <glyph glyph-name=".notdef" 
 />
    <glyph glyph-name=".null" horiz-adv-x="0" 
 />
    <glyph glyph-name="nonmarkingreturn" horiz-adv-x="333" 
 />
    <glyph glyph-name="attention" unicode="!" 
d="M571 83v106q0 8 -5 13t-12 5h-108q-7 0 -12 -5t-5 -13v-106q0 -8 5 -13t12 -6h108q7 0 12 6t5 13zM570 291l10 257q0 6 -5 10q-7 6 -14 6h-122q-7 0 -14 -6q-5 -4 -5 -12l9 -255q0 -5 6 -9t13 -3h103q8 0 13 3t6 9zM563 813l428 -786q20 -35 -1 -70q-10 -17 -26 -26
t-35 -10h-858q-18 0 -35 10t-26 26q-21 35 -1 70l429 786q9 17 26 27t36 10t36 -10t27 -27z" />
    <glyph glyph-name="tile" unicode="#" 
d="M0 -150v250h250v-250h-250zM0 225v250h250v-250h-250zM0 600v250h250v-250h-250zM375 -150v250h250v-250h-250zM375 225v250h250v-250h-250zM375 600v250h250v-250h-250zM750 -150v250h250v-250h-250zM750 225v250h250v-250h-250zM750 600v250h250v-250h-250z" />
    <glyph glyph-name="zoom-in" unicode="+" horiz-adv-x="928" 
d="M571 404v-36q0 -7 -5 -13t-12 -5h-125v-125q0 -7 -6 -13t-12 -5h-36q-7 0 -13 5t-5 13v125h-125q-7 0 -12 5t-6 13v36q0 7 6 12t12 5h125v125q0 8 5 13t13 5h36q7 0 12 -5t6 -13v-125h125q7 0 12 -5t5 -12zM643 386q0 103 -74 176t-176 74t-177 -74t-73 -176t73 -177
t177 -73t176 73t74 177zM929 -79q0 -29 -21 -50t-51 -21t-50 21l-191 191q-100 -69 -223 -69q-80 0 -153 31t-125 84t-84 125t-31 153t31 152t84 126t125 84t153 31t152 -31t126 -84t84 -126t31 -152q0 -123 -69 -223l191 -191q21 -21 21 -51z" />
    <glyph glyph-name="zoom-out" unicode="-" horiz-adv-x="928" 
d="M571 404v-36q0 -7 -5 -13t-12 -5h-322q-7 0 -12 5t-6 13v36q0 7 6 12t12 5h322q7 0 12 -5t5 -12zM643 386q0 103 -74 176t-176 74t-177 -74t-73 -176t73 -177t177 -73t176 73t74 177zM929 -79q0 -29 -21 -50t-51 -21t-50 21l-191 191q-100 -69 -223 -69q-80 0 -153 31
t-125 84t-84 125t-31 153t31 152t84 126t125 84t153 31t152 -31t126 -84t84 -126t31 -152q0 -123 -69 -223l191 -191q21 -21 21 -51z" />
    <glyph glyph-name="sort-number-up" unicode="1" horiz-adv-x="857" 
d="M751 117q0 35 -24 65t-58 30q-29 0 -46 -21t-18 -52t21 -53t58 -22q28 0 48 15t19 38zM411 46q0 -6 -6 -13l-178 -178q-5 -5 -13 -5q-6 0 -13 5l-178 179q-8 9 -4 19q4 11 17 11h107v768q0 8 5 13t13 5h107q8 0 13 -5t5 -13v-768h107q8 0 13 -5t5 -13zM829 85
q0 -35 -7 -68t-23 -64t-38 -53t-55 -36t-71 -14q-35 0 -60 9q-14 4 -24 8l22 63q8 -4 17 -6q21 -7 42 -7q47 0 75 33t37 81h-1q-11 -13 -34 -21t-47 -8q-59 0 -97 40t-37 97q0 58 40 99t101 41q69 0 114 -53t46 -141zM812 485v-64h-261v64h93v241v11t1 9v9h-2l-3 -7
q-5 -7 -15 -17l-35 -32l-45 48l107 103h68v-365h92z" />
    <glyph glyph-name="share" unicode="3" 
d="M252 459q43 0 80 -31l248 125v8q0 51 35.5 86t86.5 35t87 -35t36 -86q0 -53 -35.5 -87.5t-87.5 -34.5q-44 0 -80 28l-247 -125v-6v-8l247 -123q39 29 80 29q51 0 87 -36t36 -87q0 -50 -36 -86t-87 -36q-50 0 -86 36t-36 86v6l-248 125q-34 -28 -80 -28q-50 0 -86 36
t-36 86q0 51 36 87t86 36z" />
    <glyph glyph-name="sort-number-down" unicode="9" horiz-adv-x="857" 
d="M751 689q0 35 -24 64t-58 30q-29 0 -46 -21t-18 -52t21 -53t58 -21q28 0 48 15t19 38zM411 46q0 -6 -6 -13l-178 -178q-5 -5 -13 -5q-6 0 -13 5l-178 179q-8 9 -4 19q4 11 17 11h107v768q0 8 5 13t13 5h107q8 0 13 -5t5 -13v-768h107q8 0 13 -5t5 -13zM812 -86v-64h-261
v64h93v241v10t1 10v9h-2l-3 -7q-5 -7 -15 -17l-35 -33l-45 48l107 104h68v-365h92zM829 656q0 -34 -7 -67t-23 -64t-38 -53t-55 -37t-71 -14q-35 0 -60 9q-14 5 -24 9l22 63q8 -4 17 -6q21 -8 42 -8q47 0 75 33t37 81h-1q-11 -13 -34 -20t-47 -8q-59 0 -97 40t-37 96
q0 59 40 99t101 41q69 0 114 -53t46 -141z" />
    <glyph glyph-name="left-open" unicode="&#x3c;" horiz-adv-x="642" 
d="M414 -28l-364 364q-20 20 -20 50t20 51l364 363q21 20 51 20t50 -20l42 -42q21 -21 21 -51t-21 -50l-271 -271l271 -271q21 -21 21 -51t-21 -50l-42 -42q-21 -20 -50 -20t-51 20z" />
    <glyph glyph-name="th-list" unicode="=" 
d="M1000 850v-160h-1000v160h1000zM1000 570v-160h-1000v160h1000zM1000 290v-160h-1000v160h1000zM1000 10v-160h-1000v160h1000z" />
    <glyph glyph-name="right-open" unicode="&#x3e;" horiz-adv-x="642" 
d="M613 386q0 -29 -20 -51l-364 -363q-21 -21 -50 -21t-51 21l-42 42q-21 21 -21 50q0 30 21 51l271 271l-271 270q-21 22 -21 51q0 30 21 50l42 42q20 21 51 21t50 -21l364 -363q20 -21 20 -50z" />
    <glyph glyph-name="help" unicode="?" horiz-adv-x="857" 
d="M500 82v107q0 8 -5 13t-13 5h-107q-8 0 -13 -5t-5 -13v-107q0 -8 5 -13t13 -5h107q8 0 13 5t5 13zM643 457q0 49 -31 91t-77 65t-95 23q-136 0 -207 -119q-9 -14 4 -24l74 -55q4 -4 10 -4q9 0 14 7q30 38 48 51q19 14 48 14q27 0 48 -15t21 -33q0 -21 -11 -34t-38 -25
q-35 -16 -65 -48t-29 -70v-20q0 -8 5 -13t13 -5h107q8 0 13 5t5 13q0 10 12 27t30 28q18 10 28 16t25 19t25 27t16 34t7 45zM857 350q0 -117 -57 -215t-156 -156t-215 -58t-216 58t-155 156t-58 215t58 215t155 156t216 58t215 -58t156 -156t57 -215z" />
    <glyph glyph-name="load-3" unicode="@" 
d="M462 850q-11 0 -11 -11v-183v0q0 -11 11 -11h69h1q12 0 12 11v183v0q0 11 -12 11h-69h-1zM712 803q-6 1 -10 -5l-91 -158v0q-7 -10 4 -16l60 -35v0q10 -5 16 4l91 158q6 11 -4 16l-61 35q-1 1 -5 1zM284 801q-2 0 -6 -2l-61 -35q-9 -6 -4 -16l91 -157v0q5 -10 16 -5
l61 35q9 7 4 16l-91 157v1q-3 6 -10 6zM904 638q-4 0 -6 -1l-157 -91v0q-10 -5 -5 -16l35 -61q7 -9 16 -4l157 91h1q10 5 4 16l-35 61q-3 5 -10 5zM94 634q-8 0 -11 -6l-35 -61q-6 -9 4 -15l158 -92v0q11 -5 16 5l35 60v0q5 10 -4 16l-158 91q-4 2 -5 2zM806 399v0
q-11 0 -11 -11v-69v-1q0 -12 11 -12h183v0q11 0 11 12v69v1q0 11 -11 11h-183zM12 394v0q-12 0 -12 -12v-69v-1q0 -11 12 -11h182v0q11 0 11 11v69v1q0 12 -11 12h-182zM784 241q-7 0 -10 -6l-34 -60h-1q-5 -10 4 -16l158 -91q11 -6 16 4l35 61q6 9 -4 15l-158 91v0
q-4 2 -6 2zM218 236q-3 0 -5 -1l-157 -91h-1q-10 -6 -4 -16l35 -61q6 -9 16 -4l157 91v0q10 5 5 16l-35 61q-5 5 -11 5zM686 115q-4 0 -6 -1l-61 -35q-9 -7 -4 -16l91 -157v-1q5 -10 16 -4l61 35q9 6 4 16l-91 157v0q-3 6 -10 6zM319 112q-6 1 -10 -5l-91 -158q-5 -10 4 -16
l61 -35q9 -6 15 4l92 158v0q5 11 -5 16l-60 34v1q-2 1 -6 1zM468 55q-12 0 -12 -11v-183v0q0 -11 12 -11h69h1q11 0 11 11v183v0q0 11 -11 11h-69h-1z" />
    <glyph glyph-name="sort-name-up" unicode="A" horiz-adv-x="928" 
d="M665 622h98l-40 122l-6 26q-2 9 -2 11h-2l-2 -11l-1 -10l-5 -16zM411 46q0 -6 -6 -13l-178 -178q-5 -5 -13 -5q-6 0 -13 5l-178 179q-8 9 -4 19q4 11 17 11h107v768q0 8 5 13t13 5h107q8 0 13 -5t5 -13v-768h107q8 0 13 -5t5 -13zM877 -20v-130h-326v50l206 295
q7 10 12 16l6 5v1h-4h-4q-6 -2 -16 -2h-130v-64h-67v128h317v-50l-206 -296q-4 -4 -12 -14l-6 -7v-1l8 1q5 2 16 2h139v66h67zM927 481v-60h-161v60h42l-26 80h-136l-26 -80h42v-60h-160v60h39l128 369h90l129 -369h39z" />
    <glyph glyph-name="blogger" unicode="B" horiz-adv-x="991" 
d="M550 850l-300 -1q-102 -14 -171 -74.5t-75 -156.5q-2 -9 -2 -37q-1 -29 -1 -182q0 -43 -0.5 -131.5t0.5 -112.5q1 -308 348 -302q93 2 192 -1q22 0 63 -1t66.5 -0.5t47.5 3.5q64 9 112.5 32t77 51.5t47 67.5t26 73t10.5 75v137q-2 50 -20 86.5t-47.5 56t-60.5 28.5
t-66 10q15 59 3 146q-8 96 -73.5 160t-176.5 73zM299 663h245q48 -6 74 -33.5t25.5 -58t-27 -58t-72.5 -35.5h-245q-48 6 -74 33.5t-25.5 58t27 58t72.5 35.5zM243 259l450 -2q49 -6 76 -36t27.5 -64.5t-25.5 -65t-73 -37.5l-450 2q-50 6 -77.5 36t-27.5 64t26.5 64.5
t73.5 38.5z" />
    <glyph glyph-name="lightbulb" unicode="C" horiz-adv-x="781" 
d="M390 663q64 0 109 -45t46 -110q0 -11 -7 -18t-19 -8t-19 8t-7 18q0 43 -30 73t-73 30q-25 0 -25 26t25 26zM390 -197q-21 0 -36 16t-15 37h-104q-21 0 -37 15t-15 37v157q0 31 -23 76t-90 142q-70 97 -70 224q0 161 114 276t276 114t276 -114t115 -276q0 -121 -71 -224
q-67 -96 -89 -140t-22 -78v-157q0 -21 -15 -37t-36 -15h-105q0 -22 -16 -37t-37 -16zM495 -41v53h-209v-53h209zM625 342q53 76 53 165q0 118 -85 202t-203 84q-117 0 -202 -84t-84 -202q0 -87 52 -164q107 -155 124 -227h59v105q0 21 15 36t36 15t37 -15t16 -36v-105h57
q16 71 125 226z" />
    <glyph glyph-name="friendfeed" unicode="D" horiz-adv-x="957" 
d="M717 850q-83 0 -150 -36q-110 40 -206 32q-138 -13 -203.5 -78.5t-75.5 -176.5q-18 -2 -29.5 -6.5t-24.5 -16.5t-20 -37t-8 -63q-1 -44 4.5 -74t18 -46t24 -23t30.5 -13l2 -358q1 -4 2 -18t2.5 -19.5t5 -16.5t9.5 -16.5t15.5 -12.5t24.5 -11t35 -6l144 -3q81 -11 109 103
q11 -96 85 -97h167q3 1 14 3.5t15 3.5t13.5 5t13 7l10.5 9t10 13.5t6 17.5t4 23l3 373l44 -3q23 3 36.5 7t30.5 19.5t29 43.5v112q-2 16 -6 26t-7 12.5t-9.5 6t-9.5 5.5q39 9 52 21q23 21 30 73l-3 91q1 43 -24.5 68.5t-85.5 42.5q-94 13 -127 13zM384 763q41 0 121 -25
l2 -108q-6 2 -24 8.5t-25.5 9t-19.5 4.5t-20 1q-27 1 -44.5 -4.5t-26 -17.5t-11.5 -23t-5 -30v-77l193 -2q-1 25 0.5 52.5t2 53.5t9 51t22.5 44.5t42.5 33.5t69.5 19q109 15 192 -21l-2 -115q-31 25 -100 34q-30 4 -48.5 -3.5t-25 -23t-9.5 -36t-1.5 -42.5t-0.5 -43h139
v-102h-139l2 -460l-153 4v456l-200 -4v-452h-153l4 452h-75l-2 115l81 -5l-2 32q3 84 14 116q29 92 142 106q8 0 51 2z" />
    <glyph glyph-name="mail" unicode="E" 
d="M929 11v428q-18 -20 -39 -37q-149 -114 -238 -188q-28 -24 -46 -38t-48 -27t-57 -13h-2q-26 0 -57 13t-48 27t-46 38q-88 74 -238 188q-21 17 -39 37v-428q0 -8 6 -13t12 -5h822q7 0 12 5t6 13zM929 597v14l-1 7l-1 7l-3 5l-5 4l-8 2h-822q-7 0 -12 -6t-6 -12
q0 -94 82 -159q108 -85 224 -177q4 -2 20 -16t25 -21t25 -18t28 -15t24 -5h2q11 0 24 5t28 15t25 18t25 21t20 16q116 92 224 177q30 24 56 65t26 73zM1000 618v-607q0 -37 -26 -63t-63 -27h-822q-36 0 -63 27t-26 63v607q0 37 26 63t63 26h822q37 0 63 -26t26 -63z" />
    <glyph glyph-name="fb" unicode="F" horiz-adv-x="486" 
d="M124 -150v469h-124v169h124v145q0 92 61.5 154.5t180.5 62.5q31 0 60.5 -2t43.5 -4l15 -1l-4 -157h-108q-42 0 -56 -18t-14 -56v-124h183l-8 -169h-175v-469h-179v0z" />
    <glyph glyph-name="gplus" unicode="G" horiz-adv-x="1184" 
d="M0 32q0 87 89 155t215 68h54q-42 40 -42 86q0 29 16 58q-10 -1 -29 -1q-104 0 -170 65t-66 160q0 91 82 159t187 68h310l-69 -50h-98q47 -18 74 -68t26 -111q0 -93 -88 -162q-37 -29 -48 -46t-11 -42q0 -19 27 -48t54 -49q61 -43 85 -88t23 -113q0 -90 -82 -157t-222 -66
q-133 0 -225 50t-92 132zM112 65q0 -69 59 -118t145 -48q119 0 173 44t53 117q0 19 -4 32q-3 11 -7 21t-12 19t-14 16t-19 16t-21 15t-25 18t-26 17q-39 12 -77 12q-90 1 -157 -47t-68 -114zM178 624q11 -79 61 -136t109 -58q59 -2 94 52t25 133t-59 134t-110 57t-95 -51
t-25 -131zM733 600v50h200v200h50v-200h201v-50h-201v-201h-50v201h-200z" />
    <glyph glyph-name="icq" unicode="I" horiz-adv-x="981" 
d="M355 823q-45 10 -84 -10q-42 -26 -53 -86q-10 -60 21 -120l10 -14l-34 11q-62 15 -121 -17q-57 -29 -83 -91q-25 -61 5 -113q12 -21 33 -37q25 -25 63 -31l10 -3l-21 -18q-26 -22 -38 -59q-11 -40 10 -75q13 -20 25 -28q18 -17 42 -18q50 -11 99 4l-25 -42l-7 -19
q-21 -63 11 -125q12 -20 32 -43q24 -21 64 -32q68 -18 125 11q57 30 78 98l1 8q42 -46 80 -56q46 -14 82 10q36 21 50 67q10 46 0 97q22 -14 45 -21q67 -21 124 9q56 31 76 99q17 66 -13 122l-7 11q-22 34 -39 46q-4 2 -47 24q69 33 89 88q14 44 -7 82v3q-25 42 -75 56
q-28 7 -66 3l-47 -10l16 36q21 69 -14 129l-4 7q-31 51 -95 68q-66 16 -124 -14q-62 -33 -80 -96v-3l-2 -10l-5 10l-14 26q-34 51 -86 66zM714 738q11 -22 11 -49l-4 -31q-6 -20 -21 -42l-127 -156q-13 10 -41 24l-14 160l-1 56l1 14q10 41 52 64q41 22 81 7q43 -10 63 -47z
M277 710q1 36 28 52q13 10 33 2q40 -13 63 -61q14 -28 17 -45l28 -167l-21 -7l-125 137l-7 14q-20 43 -16 75zM201 545l38 -15l124 -91q-16 -20 -22 -42l-204 -25l-14 2q-38 8 -53 37q-16 30 -3 64q16 42 55 59q38 21 79 11zM335 315l10 -28l4 -10q-9 -8 -18.5 -17
t-19.5 -19t-16 -15l-42 -35l-11 -7q-38 -18 -74 -14q-35 2 -45 21l-4 16l3 12q12 37 58 58q40 16 42 17zM775 544q35 16 74 11q36 -4 50 -31l5 -18l-2 -15q-15 -39 -67 -60q-15 -8 -46 -13l-174 -21l-2 10l-3 4l5 7l143 119zM415 410q28 25 66 25q40 0 65 -25q29 -29 29 -67
q0 -41 -29 -66q-28 -28 -65 -28q-40 0 -66 28q-28 26 -28 66q0 36 28 67zM448 205q3 -64 14 -153v-57l-2 -14q-17 -42 -52 -58q-38 -21 -77 -10q-44 11 -61 47q-13 26 -13 48l7 32q5 23 22 40l118 141q28 -14 44 -16zM556 224l59 -61l37 -45l7 -14q21 -39 17 -74
q-5 -40 -28 -50q-11 -8 -33 -6q-40 11 -63 62l-17 47l-21 122l24 9zM620 311l159 14l56 1l14 -1q36 -11 53 -41q21 -23 21 -60l-4 -29q-11 -43 -48 -60q-39 -21 -79 -7q-25 6 -38 22l-148 123l9 21z" />
    <glyph glyph-name="lj" unicode="J" 
d="M550 150q2 7 11 24t12 27q6 18 8 64q51 -8 64 -5.5t55 21.5q4 -5 14.5 -73.5t12.5 -92.5q-2 -1 -9.5 -4.5t-11.5 -6.5q-5 -4 -9.5 -9.5t-6.5 -7.5l-140 63v0zM398 491q-12 -10 -23.5 -22t-22.5 -31.5t-3 -30.5q11 -14 31 -40.5t31 -41.5l115 -154q3 -4 7 -8l2 1l3 3
q0 1 1 2t3 4q3 4 6 10q7 13 9 24q8 41 3 58t-23 43l-83 111q-48 67 -56 72v0zM412 505q1 -5 55 -77q22 -31 55 -74q1 -1 15.5 -22t25 -33t19.5 -15q55 -19 107 11q-3 7 -35.5 51t-71.5 95t-44 58l-30 41q-8 8 -28 0.5t-43.5 -21.5t-24.5 -14v0zM460 565q-5 -2 -28 -12
t-27 -11q-2 -4 -25 -20q-24 -19 -54 -69l-5 -6q-20 21 -32 42q5 25 32 54.5t51 43.5q38 23 58 26l19 4q6 -5 19.5 -23.5t14.5 -23.5l-23 -5v0zM265 522q-8 50 51 96.5t110 26.5q-1 -1 -17 -6.5t-34 -13t-41.5 -24t-40.5 -38.5q-4 -5 -10 -15t-11 -17.5t-7 -8.5v0zM501 136
q5 -7 10 -11.5t8 -6t14.5 -6t18.5 -7.5q22 -10 105.5 -45t121.5 -53q-5 67 -35 277q-3 21 -137 200.5t-154 195.5q-40 28 -107 0t-105 -86t-4 -104q9 -12 25 -34t25 -34l127 -166l-1 1v0l2 -2q26 -36 86 -119z" />
    <glyph glyph-name="key" unicode="K" horiz-adv-x="780" 
d="M774 612q20 -116 -28 -215t-150 -117q-66 -12 -130 -2l-118 -194l-70 -12l-104 -166q-14 -28 -46 -32l-76 -14q-12 -4 -22 4t-12 22l-16 98q-8 30 12 56l258 386q-24 50 -38 120q-18 106 53 187t185 101q106 20 195 -45t107 -177zM648 536q30 44 21 97t-51 83
q-42 32 -92 22t-80 -54q-8 -12 -12 -23t-1 -20t5 -16t13 -17t18 -15t22 -16t23 -17q6 -4 22 -16t23 -16t19 -12t19 -8t17 1t18 8t16 19z" />
    <glyph glyph-name="linkedin" unicode="L" horiz-adv-x="1046" 
d="M238 -150v675h-225v-675h225zM125 617q58 0 92.5 33.5t34.5 82.5q-1 51 -34.5 84t-90.5 33t-92 -33t-35 -84q0 -49 34.5 -82.5t89.5 -33.5h1zM362 -150h224v377q0 37 7 55q35 82 115 82q114 0 114 -153v-361h224v387q0 150 -71 227t-187 77q-43 0 -78 -10.5t-59 -30
t-38.5 -35.5t-28.5 -38h2v98h-224v-675z" />
    <glyph glyph-name="location" unicode="M" horiz-adv-x="850" 
d="M421 -150q-16 0 -30 9q-48 33 -107 87q-113 102 -182 210q-96 151 -95 294q0 109 57 202q55 90 148 143q97 55 209 55t208 -55q94 -53 149 -143q56 -93 56 -202q1 -140 -91 -287q-67 -108 -177 -210q-57 -52 -113 -93l-2 -1q-13 -9 -30 -9zM731 450q0 82 -42 152
q-41 67 -112 107q-72 41 -156 41t-157 -41q-70 -40 -111 -107q-43 -70 -43 -152q0 -101 62 -210q48 -85 131 -171q55 -57 118 -106q63 50 117 106q83 86 132 171q61 109 61 210zM316 450q0 27 14 50t38 37t53 13t53 -13t38 -37t14 -50t-14 -50t-38 -36t-53 -14t-53 14
t-38 36t-14 50zM421 650q-55 0 -102 -26t-75 -73t-28 -101t28 -101t75 -72t102 -27t102 27t75 72t28 101t-28 101t-75 73t-102 26z" />
    <glyph glyph-name="instagram" unicode="N" 
d="M749 849h-498q-103 0 -176 -72.5t-73 -175.5v-502q0 -103 73 -175.5t176 -72.5h498q104 0 177 72.5t73 175.5v502q0 102 -73.5 175t-176.5 73zM906 99q0 -65 -46 -110.5t-111 -45.5h-498q-65 0 -111 45.5t-46 110.5v324h197q-23 -49 -23 -100q0 -97 69.5 -166.5
t167.5 -69.5t167.5 69t69.5 167q0 54 -23 100h187v-324zM407 323q0 41 28.5 69.5t69.5 28.5t69.5 -28.5t28.5 -69.5t-28.5 -69.5t-69.5 -28.5t-69.5 28.5t-28.5 69.5zM906 515h-264q-61 44 -137 44t-137 -44h-274v86q0 65 46 110.5t111 45.5h498q65 0 111 -45.5t46 -110.5
v-86v0zM806 701h-85q-11 0 -19.5 -8t-8.5 -19v-86q0 -11 8.5 -19t19.5 -8h85q12 0 20 8t8 19v86q0 11 -8 19t-20 8z" />
    <glyph glyph-name="load-2" unicode="O" horiz-adv-x="1001" 
d="M498 850q-181 0 -320 -116v0q86 69 192.5 90t211.5 -10.5t184 -110.5q99 -99 122.5 -236.5t-33.5 -258.5q-14 -41 12 -68q16 -16 41 -16.5t43 16.5q11 10 15 24q55 134 25 282.5t-137 256.5q-73 72 -165.5 109.5t-190.5 37.5zM89 576q-24 0 -39 -16q-12 -12 -15 -24
q-55 -133 -25.5 -282t137.5 -257q91 -91 212 -126.5t244 -10.5t220 106v0q-86 -69 -192.5 -90t-212 10.5t-184.5 110.5q-99 99 -122.5 237t33.5 258q15 41 -12 68q-18 18 -44 16z" />
    <glyph glyph-name="rub-1" unicode="P" horiz-adv-x="759" 
d="M80 242v81h75v62h-75v80h75v335h264q70 0 106 -6q75 -11 120 -66t45 -130q0 -90 -57 -152q-57 -61 -206 -61h-179v-62h405v-81h-405v-142h-93v142h-75zM248 467h180q88 0 126 33t39 95q0 44 -22 75t-58 41q-23 6 -87 6h-178v-250z" />
    <glyph glyph-name="logout" unicode="Q" horiz-adv-x="1188" 
d="M912 614l276 -266l-276 -264v177h-413v176h413v177zM746 102l106 -107q-156 -146 -338 -146q-217 0 -365 143t-149 359q0 135 68 250t184 182t250 66q184 0 349 -148l-105 -106q-114 104 -243 104q-149 0 -251 -104t-103 -254q0 -140 106 -241t247 -101q131 0 244 103z
" />
    <glyph glyph-name="rub-3" unicode="R" horiz-adv-x="752" 
d="M70 186v118h81v60h-81v118h81v319h227q127 0 169 -11q63 -16 102 -70t39 -135q0 -89 -46 -143t-110 -68q-49 -10 -147 -10h-92v-60h365v-118h-365v-86h-142v86h-81zM293 483h77q82 0 112 11q27 10 43 34t17 55q0 37 -22 62t-57 32q-28 5 -102 5h-68v-199z" />
    <glyph glyph-name="skype" unicode="S" 
d="M958 278q6 34 6 72q0 192 -136 328t-328 136q-38 0 -72 -6q-67 42 -148 42q-116 0 -198 -82t-82 -198q0 -81 42 -148q-6 -34 -6 -72q0 -192 136 -328t328 -136q38 0 72 6q67 -42 148 -42q116 0 198 82t82 198q0 81 -42 148zM720 139q-28 -42 -86 -66q-57 -24 -134 -24
q-93 0 -153 33q-42 22 -70 62q-27 40 -27 77q0 23 17 38q16 16 42 16q20 0 35 -12q15 -13 24 -36q11 -26 26 -46q14 -19 38 -30q24 -12 65 -12q55 0 90 24q34 24 34 59q0 28 -18 45q-19 18 -48 27q-34 10 -80 20q-71 16 -113 34q-48 21 -73 54q-27 35 -27 85q0 48 29 86
q30 39 82 58q54 20 126 20q59 0 99 -13q42 -13 71 -36q27 -21 41 -46q13 -28 13 -48q0 -22 -17 -39q-16 -18 -41 -18q-22 0 -35 11q-14 14 -24 33q-19 34 -41 51q-23 18 -75 18q-47 0 -78 -20q-29 -20 -29 -46q0 -16 10 -29q11 -12 27 -21q12 -6 36 -14l60 -15q41 -8 96 -25
q40 -12 73 -34q30 -20 48 -51q17 -31 17 -74q0 -54 -30 -96z" />
    <glyph glyph-name="tumblr" unicode="T" horiz-adv-x="616" 
d="M346 850v-253h237v-157h-237v-256q0 -86 9 -112q9 -24 34 -39q34 -20 76 -20q77 0 151 49v-157q-63 -31 -116 -43q-52 -12 -112 -12q-66 0 -122 17q-55 19 -89 50q-36 31 -52 68q-14 34 -14 105v350h-111v142q60 20 101 55q42 36 67 86q26 51 35 127h143v0z" />
    <glyph glyph-name="user" unicode="U" 
d="M0 -150v156q0 24 58 58t159 71q99 35 137 73t37 101q0 29 -27 72t-32 59q-12 35 -29 135q-10 52 -14 93q-2 22 6 50t28 60t67 51t110 21t110 -21t67 -51t28 -60t6 -50q-4 -41 -14 -93q-17 -100 -29 -135q-6 -16 -32 -59t-27 -72q0 -64 37 -101t137 -73q217 -80 217 -129
v-156h-1000z" />
    <glyph glyph-name="vimeo" unicode="V" horiz-adv-x="1158" 
d="M1158 619q-8 -169 -236 -463q-236 -306 -400 -306q-101 0 -171 187l-94 343q-52 187 -112 187q-13 0 -90 -55l-55 70q86 76 169 151q114 99 171 104q135 13 166 -185q34 -212 47 -264q39 -177 86 -177q36 0 109 114q73 115 78 174q10 99 -78 99q-42 0 -86 -18
q86 278 327 270q180 -5 169 -231z" />
    <glyph glyph-name="twitter" unicode="W" horiz-adv-x="749" 
d="M749 -25q0 -51 -37 -88t-89 -37h-248q-156 0 -265 110q-110 110 -110 264v501q0 53 37 89q36 36 89 36q52 0 88 -37q37 -36 37 -88v-181h353q48 0 83 -35q34 -34 34 -81q0 -46 -34 -82q-34 -34 -82 -34h-354v-88q0 -52 36 -88t88 -36h248q52 0 89 -37t37 -88v0z" />
    <glyph glyph-name="rss" unicode="X" 
d="M1000 -151h-193q0 164 -64 314t-172 258t-257 172t-314 64v192q203 0 388 -79t319 -214t214 -319t79 -388zM660 -151h-192q0 194 -137 331t-331 137v192q179 0 331 -88t241 -241t88 -331zM250 -26q0 -52 -36 -89t-89 -36t-88 36t-37 89t37 89t88 36t89 -36t36 -89z" />
    <glyph glyph-name="youtube" unicode="Y" 
d="M807 739v-313h-64v35q-37 -39 -74 -39q-45 0 -45 56v261h64v-240q0 -21 17 -21t38 24v237h64zM570 666v-162q0 -42 -25 -64t-68 -22q-41 0 -66 24t-26 63v162q0 39 28 60t67 20q38 0 64 -22t26 -59zM505 499v171q0 10 -9 17t-19 6t-18 -6t-8 -17v-171q0 -26 26 -26
q28 0 28 26zM315 850h73l-55 -165q-4 -12 -10 -27t-10 -28t-8 -28v-176h-72v168q-2 12 -29 85l-57 171h73l46 -169h5zM926 111q0 -49 -6 -145q-4 -50 -38 -80t-85 -31q-99 -5 -297 -5q-199 0 -297 5q-50 2 -84 31t-39 80q-6 96 -6 145t6 145q4 50 39 80t84 31q98 5 297 5
t297 -5q50 -2 85 -31t38 -80q6 -96 6 -145zM855 20v19h-53q0 -2 1 -13t0 -15l-3 -12t-7 -10t-14 -3q-10 0 -15 6t-6 12t-1 17v48h98v64q0 35 -19 55t-54 20q-34 0 -56 -20t-23 -55v-113q0 -36 20 -58t55 -21q77 0 77 79zM664 1v140q0 63 -50 63q-25 0 -46 -23v110h-52v-343
h52v20q22 -23 49 -23q47 0 47 56zM414 -52h51v253h-51v-192q-17 -19 -31 -19q-13 0 -13 17v194h-52v-213q0 -44 36 -44q30 0 60 32v-28zM258 241h61v50h-179v-50h60v-293h58v293zM802 136v-28h-45v28q0 27 23 27q22 0 22 -27zM611 139v-133q0 -21 -18 -21q-14 0 -25 11v158
q10 10 22 10q21 0 21 -25z" />
    <glyph glyph-name="sort-name-down" unicode="Z" horiz-adv-x="928" 
d="M665 51h98l-40 122l-6 26q-2 9 -2 11h-2l-2 -11q0 -1 -1 -10t-5 -16zM411 46q0 -6 -6 -13l-178 -178q-5 -5 -13 -5q-6 0 -13 5l-178 179q-8 9 -4 19q4 11 17 11h107v768q0 8 5 13t13 5h107q8 0 13 -5t5 -13v-768h107q8 0 13 -5t5 -13zM927 -91v-59h-161v59h42l-26 80
h-136l-26 -80h42v-59h-160v59h39l128 370h90l129 -370h39zM877 551v-130h-326v51l206 295q7 10 12 15l6 5v2q-1 0 -4 -1t-4 0q-6 -2 -16 -2h-130v-64h-67v128h317v-50l-206 -295l-12 -15l-6 -6v-1l8 1q5 1 16 1h139v66h67z" />
    <glyph glyph-name="to-start" unicode="[" horiz-adv-x="571" 
d="M546 771q11 11 18 8t7 -18v-822q0 -14 -7 -18t-18 8l-396 396q-5 5 -7 11v-379q0 -14 -11 -25t-25 -11h-71q-15 0 -25 11t-11 25v786q0 14 11 25t25 11h71q15 0 25 -11t11 -25v-379q2 7 7 11z" />
    <glyph glyph-name="to-end" unicode="]" horiz-adv-x="571" 
d="M25 -71q-10 -11 -18 -8t-7 18v822q0 14 7 18t18 -8l396 -396q5 -4 8 -11v379q0 14 10 25t25 11h72q14 0 25 -11t10 -25v-786q0 -14 -10 -25t-25 -11h-72q-14 0 -25 11t-10 25v379q-3 -6 -8 -11z" />
    <glyph glyph-name="list" unicode="_" 
d="M0 -150v250h250v-250h-250zM0 225v250h250v-250h-250zM0 600v250h250v-250h-250zM391 -150v250h609v-250h-609zM391 225v250h609v-250h-609zM391 600v250h609v-250h-609z" />
    <glyph glyph-name="sort-up" unicode="a" 
d="M411 46q0 -6 -6 -13l-178 -178q-5 -5 -13 -5q-6 0 -13 5l-178 179q-8 9 -4 19q4 11 17 11h107v768q0 8 5 13t13 5h107q8 0 13 -5t5 -13v-768h107q8 0 13 -5t5 -13zM1000 -25v-107q0 -8 -5 -13t-13 -5h-464q-8 0 -13 5t-5 13v107q0 8 5 13t13 5h464q8 0 13 -5t5 -13z
M893 261v-107q0 -8 -5 -13t-13 -5h-357q-8 0 -13 5t-5 13v107q0 8 5 13t13 5h357q8 0 13 -5t5 -13zM786 546v-107q0 -8 -5 -13t-13 -5h-250q-8 0 -13 5t-5 13v107q0 8 5 13t13 5h250q8 0 13 -5t5 -13zM679 832v-107q0 -8 -5 -13t-13 -5h-143q-8 0 -13 5t-5 13v107q0 8 5 13
t13 5h143q8 0 13 -5t5 -13z" />
    <glyph glyph-name="blogger-d" unicode="b" 
d="M196 850q-81 0 -138.5 -57.5t-57.5 -138.5v-608q0 -81 57.5 -138.5t138.5 -57.5h608q81 0 138.5 57.5t57.5 138.5v608q0 81 -57.5 138.5t-138.5 57.5h-608zM534 663q69 -6 109.5 -46t45.5 -100q7 -58 -2 -91q48 -2 82.5 -28t37.5 -85v-86q-11 -165 -169 -188
q-8 -1 -110 -1q-68 2 -119 0q-216 -3 -216 190v152v36.5v43v35.5q1 3 1 11v12q4 60 47 97.5t106 46.5zM378 546q-38 -6 -54 -32.5t-1 -52.5t55 -31h152q38 6 54 32.5t1 52.5t-55 31h-152zM343 293q-39 -6 -54.5 -35.5t0.5 -58t57 -33.5l279 -1q39 6 54.5 35t-1 58t-56.5 34z
" />
    <glyph glyph-name="friendfeed-rect" unicode="d" horiz-adv-x="999" 
d="M196 850q-81 0 -138.5 -57.5t-57.5 -138.5v-608q0 -81 57.5 -138.5t138.5 -57.5h608q80 0 137.5 57.5t57.5 138.5v608q0 81 -57.5 138.5t-137.5 57.5h-608zM674 712q26 0 93 -10q43 -11 62.5 -30t18.5 -51l2 -67q-4 -28 -15 -43.5t-19 -18t-26 -6.5q2 -1 6.5 -3.5t6.5 -5
t5 -9.5t5 -19v-81q-8 -21 -21 -32.5t-22.5 -14t-26.5 -5.5l-33 2l-2 -273q-1 -8 -2 -15t-4.5 -12t-5 -9t-7 -7.5t-7.5 -5t-9 -4t-8.5 -3t-9.5 -2.5t-9 -2h-123q-54 1 -62 71q-21 -83 -79 -75l-106 2q-17 2 -29 6.5t-18.5 8t-11 13.5t-5.5 13t-2.5 17t-1.5 15l-3 262
q-18 6 -28.5 14t-19 33t-7.5 67q1 37 10.5 57.5t20.5 25.5t29 7q13 170 204 187q70 6 150 -23q49 26 110 26zM430 648q-4 0 -16 -1t-21 0q-31 -4 -53.5 -16.5t-33.5 -28t-17 -36t-7.5 -37.5t-2.5 -36v-9l1 -23l-59 3l2 -83h54l-3 -332h113v332l146 3v-335l112 -3l-2 338h102
v74h-102q1 9 1 30.5t1.5 33t6.5 25t18.5 18t35.5 1.5q48 -5 73 -24l1 83q-61 26 -141 16q-30 -4 -50.5 -14t-31 -24.5t-16.5 -32.5t-6.5 -37t-1 -39t-0.5 -39l-142 2v56q2 14 4 21.5t8.5 17t19 13.5t32.5 3q14 2 65 -17l-1 79q-59 18 -89 18z" />
    <glyph glyph-name="mail-d" unicode="e" 
d="M1000 454v-443q0 -37 -26 -63t-63 -27h-822q-36 0 -63 27t-26 63v443q25 -28 56 -49q202 -137 278 -192q32 -24 51 -37t53 -27t61 -13h2q28 0 61 13t53 27t51 37q95 68 278 192q32 22 56 49zM1000 618q0 -44 -27 -84t-68 -69q-210 -146 -262 -181q-5 -4 -23 -17t-30 -22
t-29 -18t-33 -15t-27 -5h-2q-12 0 -27 5t-33 15t-29 18t-30 22t-23 17q-51 35 -147 101t-114 80q-35 23 -65 64t-31 77q0 43 23 72t66 29h822q36 0 62 -26t27 -63z" />
    <glyph glyph-name="fb-d" unicode="f" 
d="M183 850q-77 0 -130 -53t-53 -130v-634q0 -77 53 -130t130 -53h344v391h-104v141h104v120q0 77 51 129t150 52l100 -5l-4 -132q-43 1 -90 1q-35 0 -46.5 -15t-11.5 -47v-103h152l-6 -141h-146v-391h141q77 0 130 53t53 130v634q0 77 -53 130t-130 53h-634z" />
    <glyph glyph-name="gplus-d" unicode="g" horiz-adv-x="1001" 
d="M92 850q-41 0 -66.5 -22.5t-25.5 -69.5v-79q4 3 12 11q96 79 250 81h307l-82 -66h-89q89 -77 89 -184q0 -73 -30 -117.5t-88 -89.5q-41 -41 -41 -72q0 -15 7.5 -28.5t12.5 -18.5t18 -16l52 -40q73 -62 97 -90q51 -61 51 -127q0 -45 -12 -72h354q40 0 66 21t26 58v580
h-184v-185h-79v185h-184v78h184v184h79v-184h184v171q0 47 -25.5 69.5t-66.5 22.5h-816zM1000 587v-78h1v78h-1zM187 722q-62 0 -102 -48q-28 -36 -28 -108q0 -39 10.5 -79.5t30.5 -78t55.5 -61t79.5 -23.5q66 0 98 36q37 42 37 93q0 57 -19 117t-62 106t-100 46zM0 324
v-259q23 18 59.5 29t59.5 13.5t68 3.5t48 1q-1 1 -6 8t-6.5 8.5t-5.5 8t-5.5 9.5t-5 9t-5 10t-4 10t-3 11t-1.5 11.5t-1 13.5q0 23 14 57q-2 0 -20 -1.5t-26 -1.5q-88 0 -160 59zM251 72q-82 0 -152 -24q-69 -26 -99 -66v-53q0 -37 26 -58t66 -21h377q6 21 6 26
q0 18 -7.5 35.5t-16.5 30t-31 30.5t-36.5 28.5t-47.5 33.5t-51 36q-12 2 -34 2z" />
    <glyph glyph-name="info" unicode="i" horiz-adv-x="857" 
d="M571 82v89q0 8 -5 13t-12 5h-54v286q0 8 -5 13t-13 5h-178q-8 0 -13 -5t-5 -13v-89q0 -8 5 -13t13 -5h53v-179h-53q-8 0 -13 -5t-5 -13v-89q0 -8 5 -13t13 -5h250q7 0 12 5t5 13zM500 582v89q0 8 -5 13t-13 5h-107q-8 0 -13 -5t-5 -13v-89q0 -8 5 -13t13 -5h107q8 0 13 5
t5 13zM857 350q0 -117 -57 -215t-156 -156t-215 -58t-216 58t-155 156t-58 215t58 215t155 156t216 58t215 -58t156 -156t57 -215z" />
    <glyph glyph-name="linkedin-d" unicode="l" 
d="M196 850q-81 0 -138.5 -57.5t-57.5 -138.5v-608q0 -81 57.5 -138.5t138.5 -57.5h608q80 0 138 57.5t58 138.5v608q0 81 -58 138.5t-138 57.5h-608zM245 685q38 0 61 -22t24 -57q0 -33 -23.5 -55.5t-62.5 -22.5h-1q-37 0 -60 22.5t-23 55.5q0 34 23.5 56.5t61.5 22.5z
M690 477q79 0 126.5 -52t47.5 -153v-260h-151v243q0 102 -76 102q-56 0 -78 -55q-5 -12 -5 -37v-253h-151q2 411 0 454h151v-64q48 75 136 75zM169 466h151v-454h-151v454z" />
    <glyph glyph-name="instagram-d" unicode="n" 
d="M604 339q0 40 -29 69t-70 29t-69.5 -28.5t-28.5 -69.5t28.5 -69.5t69.5 -28.5t70 29t29 69zM750 849h-500q-103 0 -176 -72.5t-73 -175.5v-69h367q62 43 137 43q76 0 137 -43h358v69q0 103 -73 175.5t-177 72.5zM851 613q0 -11 -8 -19.5t-20 -8.5h-85q-12 0 -20 8.5
t-8 19.5v85q0 12 8 20t20 8h85q12 0 20 -8t8 -20v-85zM742 339q0 -98 -69.5 -167t-167.5 -69t-167.5 69t-69.5 167q0 53 23 101h-290v-341q0 -103 73 -175.5t176 -72.5h500q104 0 177 72.5t73 175.5v341h-280q22 -49 22 -101z" />
    <glyph glyph-name="load-1" unicode="o" 
d="M855 9q-92 -93 -223.5 -122t-260.5 7t-221 128q-142 142 -149.5 343.5t121.5 351.5q23 27 35 34q27 17 60 13.5t57 -26.5q22 -23 26.5 -54t-10.5 -58q-8 -14 -16 -22q-105 -114 -107.5 -263.5t99.5 -252.5q117 -112 277.5 -98.5t264.5 132.5q81 93 102.5 213.5
t-25.5 237.5q-41 97 -123.5 160.5t-181.5 78.5t-205 -17v1q178 62 347 -10t241 -242q52 -127 31.5 -257.5t-103.5 -235.5q-17 -23 -36 -42z" />
    <glyph glyph-name="rub-5" unicode="p" horiz-adv-x="709" 
d="M50 206v100h120v80h-120v100h120v314h267q51 0 90 -12q40 -12 71 -39q66 -57 66 -156t-66 -156q-31 -27 -71 -39q-39 -12 -90 -12h-99v-80h288v-100h-288v-106h-168v106h-120zM338 486h56q38 0 57 11q39 21 39 79t-39 79q-15 8 -29 9q-14 2 -28 2h-56v-180z" />
    <glyph glyph-name="search" unicode="q" horiz-adv-x="1042" 
d="M474 100q58 0 114 19q52 18 97 51l190 -183l61 59l-190 183q35 44 54 96t19 108q0 90 -47 168q-46 76 -124 120q-81 46 -174 46t-174 -46q-78 -44 -124 -120q-47 -78 -47 -168t47 -168q46 -75 124 -119q81 -46 174 -46zM474 683q70 0 130 -33t94 -91t35 -125t-35 -125
t-94 -92t-130 -34t-129 34t-94 92t-35 125t35 125t94 91t129 33z" />
    <glyph glyph-name="rub-6" unicode="r" horiz-adv-x="775" 
d="M60 279q0 18 17 28q7 3 16 3q13 0 32 -7q68 -9 126 -10l25 70q-38 2 -59 4q-43 4 -63 5q-55 3 -55 32q0 18 17 28q7 3 16 3q14 0 32 -7q67 -12 126 -16l14 38q51 138 102 249q19 42 53 42q10 0 18 -6t6 -25t-21 -47l-20 -30l-16 -29q-7 -12 -15 -30l-13 -28
q-4 -9 -12 -28l-10 -25q-22 -51 -32 -88q40 -5 77 -5q89 0 153 30t95 81t31 100q0 64 -53 111q-66 59 -197 59q-145 0 -254 -68q-57 -35 -57 -72q0 -44 77 -48q32 -2 32 -21q0 -21 -34 -21q-59 0 -94 24q-35 25 -35 62q0 70 90 122q118 68 280 68q165 0 247 -84
q54 -55 54 -128q0 -68 -41 -131t-118 -97t-191 -34q-43 0 -79 3l-23 -66q79 -6 182 -6h53q42 0 62 2q22 2 33 2q31 0 31 -26q0 -11 -7 -18t-22 -9t-29 -3h-9q-12 0 -28 1q-24 1 -35 1q-82 0 -246 10l-22 -67q-7 -22 -7 -34t3 -20t3 -15q0 -34 -34 -34q-13 0 -23 11t-10 30
q0 35 16 75l20 56q-96 3 -121 3q-54 0 -54 30z" />
    <glyph glyph-name="star" unicode="s" 
d="M272 253l-63 -269q-2 -12 3 -24t14 -19q13 -8 24 -8t23 7l227 152l227 -152q11 -7 24 -7t24 8t15 20t0 25l-76 267l189 170q9 8 13 21t-1 24t-14 19t-23 9l-237 19l-103 227q-5 11 -15 18t-23 7t-22 -7t-16 -18l-103 -227l-237 -19q-13 -2 -22 -9t-14 -18t-1 -24t11 -21z
M390 434q12 1 21 7t14 17l75 166l75 -166q4 -10 14 -16t21 -8l165 -14l-136 -122q-9 -8 -12 -19t0 -24l52 -182l-156 103q-10 8 -22 8t-24 -8l-163 -108l44 189q5 23 -11 40l-127 123z" />
    <glyph glyph-name="tumblr-rect" unicode="t" 
d="M193 850q-80 0 -136.5 -56.5t-56.5 -136.5v-614q0 -80 56.5 -136.5t136.5 -56.5h614q80 0 136.5 56.5t56.5 136.5v614q0 80 -56.5 136.5t-136.5 56.5h-614zM435 709h99v-177h166v-109h-166v-179q0 -61 7 -78q6 -16 23 -27q25 -14 53 -14q53 0 106 35v-110
q-45 -21 -81 -30q-32 -8 -79 -8q-48 0 -84 12t-63 34q-26 22 -36 48q-10 27 -10 73v244h-77v99q42 14 71 38q31 28 47 60q18 38 24 89z" />
    <glyph glyph-name="user" unicode="u" horiz-adv-x="960" 
d="M480 731q-54 0 -100 -27t-73 -73t-27 -100t27 -100t73 -73t100 -27t100 27t73 73t27 100t-27 100t-73 73t-100 27zM480 411q-33 0 -60 16t-44 44t-16 60t16 60t44 44t60 16t60 -16t44 -44t16 -60t-16 -60t-43 -44t-61 -16zM840 -30v41q0 76 -38 141q-38 63 -101 101
q-65 38 -141 38h-160q-76 0 -141 -38q-63 -38 -101 -101q-38 -65 -38 -141v-41h80v41q0 54 27 100t73 73t100 27h160q54 0 100 -27t73 -73t27 -100v-41h80z" />
    <glyph glyph-name="vimeo-d" unicode="v" 
d="M193 850q-80 0 -136.5 -56.5t-56.5 -136.5v-614q0 -80 56.5 -136.5t136.5 -56.5h614q80 0 136.5 56.5t56.5 136.5v614q0 80 -56.5 136.5t-136.5 56.5h-614zM710 653h9q110 -3 104 -143q-4 -103 -146 -285q-145 -189 -247 -189q-63 0 -106 115l-57 212q-33 115 -69 115
q-9 0 -56 -34l-34 44q70 62 104 93q72 61 106 64q42 4 67.5 -24.5t35.5 -89.5q22 -139 29 -163q24 -109 52 -109q23 0 68 70t48 107q6 61 -48 61q-28 0 -53 -11q51 167 193 167z" />
    <glyph glyph-name="twitter-bird" unicode="w" horiz-adv-x="1231" 
d="M1231 732q-51 -77 -126 -131q1 -14 1 -32q0 -102 -30 -203q-29 -102 -90 -195q-61 -92 -145 -164t-201 -114q-118 -43 -253 -43q-210 0 -387 113q31 -3 60 -3q176 0 314 108q-82 2 -147 51q-64 49 -89 125q24 -5 48 -5q34 0 66 9q-87 17 -145 87q-57 69 -57 160v4
q53 -30 114 -32q-52 34 -82 90q-30 55 -30 120q0 68 34 127q95 -117 230 -186q135 -70 290 -78q-6 28 -6 58q0 104 74 178t178 74q110 0 185 -80q85 17 160 62q-29 -91 -111 -140q76 9 145 39v1z" />
    <glyph glyph-name="rss-d" unicode="x" 
d="M1000 761v-824q0 -36 -26 -62t-62 -26h-824q-36 0 -62 26t-26 62v824q0 36 26 62t62 26h824q36 0 62 -26t26 -62zM717 -4h136q0 143 -56 274t-150 226t-226 150t-274 56v-135q154 0 286 -76t208 -208t76 -287zM477 -4h136q0 126 -62 234t-170 170t-234 62v-135
q136 0 233 -97q97 -95 97 -234zM324 84q0 37 -26 63t-63 26q-36 0 -62 -26t-26 -63q0 -36 26 -62t62 -26q37 0 63 26t26 62z" />
    <glyph glyph-name="youtube-d" unicode="y" 
d="M0 -29v758h1000v-758h-1000zM355 128l350 220l-350 219v-439z" />
    <glyph glyph-name="sort-down" unicode="z" 
d="M679 -25v-107q0 -8 -5 -13t-13 -5h-143q-8 0 -13 5t-5 13v107q0 8 5 13t13 5h143q8 0 13 -5t5 -13zM411 46q0 -6 -6 -13l-178 -178q-5 -5 -13 -5q-6 0 -13 5l-178 179q-8 9 -4 19q4 11 17 11h107v768q0 8 5 13t13 5h107q8 0 13 -5t5 -13v-768h107q8 0 13 -5t5 -13z
M786 261v-107q0 -8 -5 -13t-13 -5h-250q-8 0 -13 5t-5 13v107q0 8 5 13t13 5h250q8 0 13 -5t5 -13zM893 546v-107q0 -8 -5 -13t-13 -5h-357q-8 0 -13 5t-5 13v107q0 8 5 13t13 5h357q8 0 13 -5t5 -13zM1000 832v-107q0 -8 -5 -13t-13 -5h-464q-8 0 -13 5t-5 13v107q0 8 5 13
t13 5h464q8 0 13 -5t5 -13z" />
    <glyph glyph-name="to-start-alt" unicode="{" 
d="M975 771q10 11 18 8t7 -18v-822q0 -14 -7 -18t-18 8l-396 396q-5 5 -8 11v-397q0 -14 -7 -18t-18 8l-396 396q-5 5 -7 11v-379q0 -14 -11 -25t-25 -11h-71q-15 0 -25 11t-11 25v786q0 14 11 25t25 11h71q15 0 25 -11t11 -25v-379q2 7 7 11l396 396q11 11 18 8t7 -18v-396
q3 6 8 10z" />
    <glyph glyph-name="thumb" unicode="|" 
d="M0 -150v438h438v-438h-438zM0 413v437h438v-437h-438zM563 -150v438h437v-438h-437zM563 413v437h437v-437h-437z" />
    <glyph glyph-name="to-end-alt" unicode="}" 
d="M25 -71q-10 -11 -18 -8t-7 18v822q0 14 7 18t18 -8l396 -396q5 -4 8 -11v397q0 14 7 18t18 -8l396 -396q4 -4 7 -11v379q0 14 11 25t25 11h71q15 0 25 -11t11 -25v-786q0 -14 -11 -25t-25 -11h-71q-15 0 -25 11t-11 25v379q-3 -6 -7 -11l-396 -396q-11 -11 -18 -8t-7 18
v397q-3 -6 -8 -11z" />
    <glyph glyph-name="fast-bw" unicode="&#xab;" horiz-adv-x="928" 
d="M903 771q11 11 18 8t8 -18v-822q0 -14 -8 -18t-18 8l-396 396q-4 5 -7 11v-397q0 -14 -7 -18t-18 8l-396 396q-11 11 -11 25t11 25l396 396q11 11 18 8t7 -18v-396q3 6 7 10z" />
    <glyph glyph-name="sort" unicode="&#xb1;" horiz-adv-x="571" 
d="M571 243q0 -15 -10 -25l-250 -250q-11 -11 -25 -11t-25 11l-250 250q-11 10 -11 25t11 25t25 11h500q14 0 25 -11t10 -25zM571 457q0 -14 -10 -25t-25 -11h-500q-15 0 -25 11t-11 25t11 25l250 250q10 11 25 11t25 -11l250 -250q10 -10 10 -25z" />
    <glyph glyph-name="fast-fw" unicode="&#xbb;" horiz-adv-x="928" 
d="M25 -71q-10 -11 -18 -8t-7 18v822q0 14 7 18t18 -8l396 -396q5 -4 8 -11v397q0 14 7 18t18 -8l396 -396q10 -11 10 -25t-10 -25l-396 -396q-11 -11 -18 -8t-7 18v396q-3 -5 -8 -10z" />
    <glyph glyph-name="pause" unicode="&#x1c1;" horiz-adv-x="857" 
d="M857 743v-786q0 -14 -10 -25t-26 -11h-285q-15 0 -25 11t-11 25v786q0 14 11 25t25 11h285q15 0 26 -11t10 -25zM357 743v-786q0 -14 -10 -25t-26 -11h-285q-15 0 -25 11t-11 25v786q0 14 11 25t25 11h285q15 0 26 -11t10 -25z" />
    <glyph glyph-name="up-open" unicode="&#x2c4;" horiz-adv-x="928" 
d="M899 171q0 -29 -21 -50l-42 -42q-21 -21 -50 -21q-30 0 -51 21l-271 271l-271 -271q-20 -21 -50 -21t-50 21l-42 42q-21 20 -21 50t21 51l363 363q21 21 50 21t51 -21l363 -363q21 -21 21 -51z" />
    <glyph glyph-name="down-open" unicode="&#x2c5;" horiz-adv-x="928" 
d="M899 457q0 -29 -21 -50l-363 -363q-21 -22 -51 -22t-50 22l-363 363q-21 20 -21 50t21 51l41 42q22 20 51 20t50 -20l271 -271l271 271q21 20 51 20q29 0 50 -20l42 -42q21 -22 21 -51z" />
    <glyph glyph-name="whatsapp" unicode="&#x410;" horiz-adv-x="857" 
d="M550 307q7 0 54 -25t50 -30q1 -2 1 -8q0 -18 -9 -42q-9 -22 -40 -37t-57 -15q-32 0 -106 35q-55 25 -95 66t-82 103q-41 60 -40 108v5q2 50 41 88q14 12 29 12q4 0 10 -1t11 -1q11 0 15 -3t8 -16q5 -11 19 -49t14 -41q0 -12 -19 -33t-20 -26q0 -3 3 -8q19 -41 57 -76
q31 -30 84 -57q7 -4 13 -4q8 0 30 27t29 28zM436 11q71 0 136 28t112 74t75 112t28 136t-28 136t-75 112t-112 75t-136 28t-135 -28t-112 -75t-75 -112t-28 -136q0 -113 67 -205l-44 -130l135 43q88 -58 192 -58zM436 782q86 0 164 -34t134 -89t90 -135t33 -163t-33 -163
t-90 -134t-134 -90t-164 -34q-108 0 -203 53l-233 -75l76 226q-60 99 -60 217q0 86 33 163t90 135t134 89t163 34z" />
    <glyph glyph-name="vk" unicode="&#x412;" 
d="M299 622h237q62 0 103.5 -30.5t41.5 -85.5q0 -46 -16.5 -70.5t-55.5 -47.5q2 -2 10 -5t18 -6.5t13 -4.5q20 -11 33 -25q20 -20 26.5 -40.5t6.5 -55.5q0 -71 -57.5 -111.5t-134.5 -40.5h-226l1 523v0zM428 484v-68h20h20t17.5 0.5t17 2t14 4t12.5 7t8.5 11t6.5 15t2 19.5
q0 13 -3.5 22t-11 14.5t-14.5 9t-20.5 4.5t-21 1.5t-24.5 0t-23 -0.5v-42v0zM428 195q6 0 29 -0.5t31 0t26.5 2t26.5 6t18.5 11.5t15 18.5t4.5 27.5q0 17 -4 29t-14 19t-19.5 11t-26.5 5.5t-27.5 1.5t-30.5 -0.5t-29 -0.5v-130z" />
    <glyph glyph-name="tg" unicode="&#x413;" 
d="M861 695l-739 -285q-24 -10 -33 -21t-3 -23t27 -17l190 -59l439 277q10 6 19 7t10 -4t-5 -11l-356 -321l-13 -195q13 0 22 5q7 4 16 14l93 89l191 -141q27 -15 45 -7t25 40l126 592q6 25 0 42t-22 21t-32 -3z" />
    <glyph glyph-name="home" unicode="&#x414;" horiz-adv-x="928" 
d="M786 296v-267q0 -15 -11 -26t-25 -10h-214v214h-143v-214h-214q-15 0 -25 10t-11 26v267v2v2l321 264l321 -264q1 -1 1 -4zM910 335l-34 -41q-5 -5 -12 -6h-2q-7 0 -12 3l-386 322l-386 -322q-7 -4 -13 -4q-7 2 -12 7l-35 41q-4 5 -3 13t6 12l401 334q18 15 42 15t43 -15
l136 -114v109q0 8 5 13t13 5h107q8 0 13 -5t5 -13v-227l122 -102q5 -5 6 -12t-4 -13z" />
    <glyph glyph-name="viber" unicode="&#x419;" horiz-adv-x="950" 
d="M486 850q127 -3 223 -35q82 -26 132 -82q48 -55 68 -140q16 -69 18 -149q2 -64 -6 -149q-7 -74 -29 -128q-26 -64 -73 -105t-115 -61q-137 -40 -306 -30q-6 1 -10 -1t-8 -7l-72 -82q-15 -19 -28 -26q-16 -8 -29 -4t-21 21q-5 10 -5 31v84q0 8 -2 12t-10 6
q-165 57 -199 244q-30 171 4 338q14 65 42 111q33 53 86 84q56 32 137 51q84 19 203 17zM259 -110q2 -2 5 -2l7 9q82 90 123 136q9 10 22 10q134 -9 270 30q92 28 133 110q16 30 24 69q6 28 11 73q7 71 4 130q-3 69 -19 129q-33 126 -150 162q-83 27 -187 32
q-121 6 -224 -20q-166 -41 -194 -206q-27 -157 1 -294q14 -67 51 -112q38 -48 101 -71q13 -5 18 -12t4 -22q-1 -33 0 -101v-50zM206 556v5q2 14 5 20q24 39 72 59q10 5 20 1t18 -12q24 -25 38 -45q19 -26 31 -51q8 -17 6 -27t-18 -24q-19 -17 -25 -28t-5 -24t14 -35
q42 -79 124 -108q23 -9 38 11q4 6 12 16q11 14 25 17t29 -5q45 -22 96 -70q9 -8 10 -21t-6 -26q-16 -30 -44 -52q-31 -26 -72 -9q-212 91 -323 294q-23 41 -41 93zM685 418q-2 -3 -1 -11q1 -6 0 -9t-6 -3t-5 4t-1 12l1 6q-5 77 -46 131t-113 74q-22 6 -48 6h-2q-5 0 -7 1
t-3 6t3 6t7 0h3q53 -2 98 -25t75 -64t39 -91zM625 433v-5v-7l-5 -2l-5 2l-1 9v3q-9 118 -128 136h-2q-5 0 -8 2t-2 6t9 4h2q38 -2 71 -22t52 -54t17 -72zM567 448v-2v-6t-5 -2t-5 2t-1 7v1q-6 53 -55 59h-3q-4 1 -6 2t-1 5q0 7 12 5q27 -2 46 -22t18 -49z" />
    <glyph glyph-name="sitemap" unicode="&#x41a;" horiz-adv-x="940" 
d="M868 112q72 -34 72 -112q0 -50 -35 -85t-85 -35t-85 35t-35 85q0 78 72 112v114q0 78 -76 78h-100q-44 0 -78 12v-204q72 -34 72 -112q0 -50 -35 -85t-85 -35t-85 35t-35 85q0 78 72 112v204q-30 -12 -76 -12h-100q-34 0 -53 -19t-22 -33t-3 -26v-114q72 -34 72 -112
q0 -50 -35 -85t-85 -35t-85 35t-35 85q0 78 72 112v114q0 64 43 118t131 54h100q76 0 76 52v140q-72 34 -72 110q0 50 35 85t85 35t85 -35t35 -85q0 -76 -72 -110v-140q0 -52 78 -52h100q86 0 129 -54t43 -118v-114zM190 0q0 30 -21 50t-49 20t-48 -20t-20 -50q0 -28 20 -48
t48 -20t49 20t21 48zM402 700q0 -28 20 -48t48 -20t49 20t21 48q0 30 -21 50t-49 20t-48 -20t-20 -50zM540 0q0 30 -21 50t-49 20t-48 -20t-20 -50q0 -28 20 -48t48 -20t49 20t21 48zM820 -68q28 0 49 20t21 48q0 30 -21 50t-49 20t-48 -20t-20 -50q0 -28 20 -48t48 -20z
" />
    <glyph glyph-name="odnoklassniki" unicode="&#x41e;" horiz-adv-x="579" 
d="M290 850q-107 0 -182.5 -75.5t-75.5 -182.5t75.5 -182.5t182.5 -75.5q106 0 182 76t76 182t-76 182t-182 76zM290 699q44 0 75.5 -31.5t31.5 -75.5t-31.5 -75.5t-75.5 -31.5t-75.5 31.5t-31.5 75.5t31.5 75.5t75.5 31.5zM77 325q-44 0 -65 -35q-17 -27 -10 -57.5
t33 -47.5q71 -44 150 -62l-144 -144q-23 -23 -23 -54t23 -53q22 -22 53 -22q32 0 54 22l142 142l141 -142q23 -22 54 -22t53 22t22 53.5t-22 53.5l-144 144q78 18 150 62q26 17 33 47.5t-9 57.5q-17 26 -47.5 33t-57.5 -10q-79 -49 -173.5 -49t-173.5 49q-18 12 -39 12z" />
    <glyph glyph-name="print" unicode="&#x41f;" horiz-adv-x="928" 
d="M214 -7h500v143h-500v-143zM214 350h500v214h-89q-22 0 -38 16t-16 38v89h-357v-357zM857 314q0 15 -10 25t-26 11t-25 -11t-10 -25t10 -25t25 -10t26 10t10 25zM929 314v-232q0 -7 -6 -12t-12 -6h-125v-89q0 -22 -16 -38t-38 -16h-536q-22 0 -37 16t-16 38v89h-125
q-7 0 -13 6t-5 12v232q0 44 32 76t75 31h36v304q0 22 16 38t37 16h375q23 0 50 -12t42 -26l85 -85q15 -16 27 -43t11 -49v-143h35q45 0 76 -31t32 -76z" />
    <glyph glyph-name="rub-4" unicode="&#x420;" horiz-adv-x="633" 
d="M75 237v71h66v70h-66v71h66v352h227q84 0 140 -44t56 -138q0 -240 -319 -240h-11v-71h310v-71h-310v-137h-93v137h-66zM234 449h32q199 0 199 162q0 61 -36 91t-86 29h-109v-282z" />
    <glyph glyph-name="phone" unicode="&#x422;" horiz-adv-x="785" 
d="M786 158q0 -15 -6 -39t-12 -38q-11 -28 -68 -60q-52 -28 -103 -28q-16 0 -30 2t-32 7t-26 8t-31 11t-28 10q-54 20 -97 47q-72 44 -148 120t-120 148q-27 43 -46 97q-2 5 -10 28t-12 31t-8 26t-7 32t-2 29q0 52 29 104q31 56 59 68q14 6 38 12t39 6q8 0 12 -2
q10 -3 30 -43q6 -10 16 -30t20 -35t17 -30q2 -2 10 -14t12 -20t4 -16q0 -11 -16 -28t-35 -30t-34 -30t-16 -25q0 -5 3 -13t4 -11t8 -14t7 -10q42 -77 97 -132t131 -97q1 0 10 -6t14 -8t11 -5t13 -2q10 0 25 15t30 35t31 35t28 16q7 0 15 -4t20 -12t14 -10q14 -8 30 -17
t35 -20t31 -17q39 -19 42 -29q2 -4 2 -12z" />
    <glyph glyph-name="ok" unicode="&#x423;" horiz-adv-x="1179" 
d="M1179 778q-250 -222 -600 -750l-115 -179q-144 180 -464 500l107 107l286 -250q150 150 279 272t206 187t131 111t77 59l21 14q4 0 11 -2t26 -19t35 -50z" />
    <glyph glyph-name="doc" unicode="&#x424;" horiz-adv-x="714" 
d="M71 -7h572v428h-232q-23 0 -38 16t-16 38v232h-286v-714zM429 493h209q-5 16 -12 23l-175 174q-6 7 -22 13v-210zM714 475v-500q0 -22 -15 -38t-38 -16h-607q-23 0 -38 16t-16 38v750q0 22 16 38t38 16h357q22 0 49 -12t42 -26l174 -175q16 -15 27 -42t11 -49z" />
    <glyph glyph-name="zen" unicode="&#x426;" 
d="M1000 478v-123h-3q-41 2 -62 2h-3q-85 4 -127 8q-64 8 -95 17q-73 21 -117 68q-47 48 -65 125q-9 40 -15 103q-3 35 -5 101l-3 71h126q10 -1 28 -1h13q67 -4 100 -8q59 -9 97 -25q64 -26 92 -86q17 -37 25 -80q7 -36 10 -80q2 -32 3 -81q0 -8 1 -11zM369 850h126v-3
q-2 -41 -2 -62q-4 -92 -9 -138q-8 -60 -17 -90q-21 -71 -68 -116t-125 -63q-41 -10 -103 -15q-33 -3 -99 -5l-72 -3v123q1 12 1 37q4 70 9 105q7 55 24 98q28 71 95 97q36 15 80 23q69 11 151 11q6 0 9 1zM631 -150h-126l3 65q2 80 9 139t20 101q27 83 98 130q47 30 109 41
q33 6 97 12q62 4 93 5q22 0 66 2v-123q-1 -13 -1 -38q-1 -46 -8 -103t-24 -99q-27 -68 -93 -96q-32 -14 -72 -22q-36 -7 -80 -10q-32 -2 -81 -3q-7 0 -10 -1zM0 222v123q42 -2 62 -2q88 -4 131 -8q63 -7 103 -19q72 -22 119 -74q41 -48 57 -117q10 -42 15 -102q2 -22 4 -66
l2 -34l2 -73h-126q-13 1 -39 1h-2q-72 4 -107 9q-55 9 -92 25q-66 28 -92 91q-16 34 -22 74q-12 66 -14 163q0 6 -1 9z" />
    <glyph glyph-name="post-ru" unicode="&#x427;" 
d="M808 502v-13l-3 -84q0 -4 -1 -5t-6 -2h-28q-3 0 -4 1t-1 4l3 78q0 25 2 73l2 57q2 1 4 1h60q31 -2 45 -22q7 -11 9 -29l10 -93l8 -64v-6h-29q-8 0 -9 2t-3 9l-10 89q0 4 -4 4h-45zM810 539h41q-1 24 -10 32t-31 4v-36zM87 611h126l1 -6v-200q0 -4 -1 -5t-6 -2h-27
q-4 0 -5 2t-1 5v170h-48v-169q0 -6 -1 -7t-6 -1h-29q-4 0 -4 4v207q0 1 1 2v0zM404 507q0 -41 -12 -69t-33 -38t-40 -4t-33 24t-18 53q-5 37 1 71q5 26 18 48q11 17 29 23t35 1t29 -21q17 -24 22 -56zM304 502q1 -8 3 -32q4 -21 13 -32q5 -7 14 -7t13 6t9 16q13 45 3 96
q-1 9 -9 23q-6 9 -16 9t-16 -9q-4 -6 -6 -14q-4 -12 -6 -26q-1 -10 -2 -30v0zM627 301h31q4 0 4 -4v-69q52 54 79 83l1 -1l9 -221h-33q-1 0 -2 2l-1 2l-5 134q-3 -1 -4 -4q-21 -21 -41 -44q-3 -3 -3 -7v-77q0 -6 -6 -6h-25q-3 0 -4 1t-1 3q0 137 1 205v3zM790 301h11
q14 1 21 0q1 0 2 -2t1 -3v-68l27 28q35 37 53 55h1l8 -221h-36q-1 45 -5 137v0q-1 0 -1 1l-3 -5q-15 -15 -41 -43q-3 -3 -3 -8v-77q0 -4 -1 -5t-5 -1q-6 1 -19 0h-10v212zM330 202q-1 -28 -3 -42q-3 -21 -10 -36q-3 -8 -13 -22q-16 -19 -39 -17t-37 21q-12 17 -17 48
q-8 56 4 99q5 21 16 35q15 19 38 19t37 -19q16 -21 21 -53q3 -19 3 -33v0zM296 197h-1l-2 28q0 6 -1 9l-1 5q-3 17 -9 25t-14 8t-13 -8t-9 -23q-8 -37 -2 -80q2 -18 10 -32q6 -9 15 -9t13 9q6 12 7 18q3 16 7 50v0zM446 611h40v-55q0 -16 15 -17q8 -1 26 -1q3 -1 3 4v69h40
v-6q0 -134 1 -200q0 -4 -1 -5t-6 -2h-27q-4 0 -5 2t-2 5q1 15 1 45v45q0 4 -1 5t-6 1q-23 0 -35 1q-19 3 -31 18t-12 34v57zM86 301h20q23 1 34 -2q23 -7 35 -31t9 -57q-1 -16 -2 -23q-2 -13 -7 -22q-4 -7 -9 -14q-7 -9 -18 -10t-22 5l-5 3v-60h-35v211zM120 232v0v-11
q-1 -15 0 -23q2 -10 7 -17q2 -4 7 -4t8 3l2 3q3 6 4 10q4 16 0 41q0 15 -6 26t-17 11q-3 0 -4 -1t-1 -4v-34zM594 120v-34q0 -1 -1 -2t-3 -1q-40 0 -66 22t-34 60q-9 46 8 88q22 46 75 52l21 2v-26q0 -9 -1 -10t-11 -3q-35 -3 -48 -32q-20 -41 0 -82q15 -30 49 -33
q7 0 11 -1zM462 307v-38q-5 -1 -15 -1q-41 -8 -50 -47t8 -71q14 -26 46 -29q9 -1 11 -2t1 -10v-22q0 -5 -5 -5q-41 2 -67 25t-33 63q-8 46 9 83q21 46 74 52zM649 576h-32v35h104v-35h-32v-171q0 -4 -1 -5t-6 -2h-27q-7 0 -7 7q1 55 1 164v7z" />
    <glyph glyph-name="vk" unicode="&#x429;" horiz-adv-x="1750" 
d="M1632 779q19 67 -56 67h-182q-32 0 -53 -16q-16 -12 -27 -36l-17 -38q-21 -47 -46 -93q-35 -66 -71 -122q-45 -69 -90 -120q-33 -33 -50 -44t-35 -12q-11 0 -19 11q-10 15 -10 41v362q0 35 -11 51t-41 16h-287q-21 0 -34 -13t-13 -29q0 -11 6 -23q4 -6 16 -21
q22 -26 31 -47q17 -36 20 -87v-269q0 -42 -8 -57q-8 -13 -26 -13q-31 0 -86 69t-112 177q-61 117 -104 242q-13 39 -30 54q-18 17 -52 17h-182q-36 0 -51 -16q-12 -12 -12 -35t13 -71q16 -60 46 -132q37 -88 89 -182q61 -111 140 -222q74 -106 169 -183q91 -73 191 -112
t198 -39q56 0 85 8q27 8 37 25q8 13 8 38v164q0 26 5 40t14 18t29 5q26 0 60 -20q49 -28 122 -98q37 -37 88 -94q32 -36 45 -48q21 -20 39 -29t42 -9h182q41 0 58 20t6 58q-12 36 -54 93q-36 49 -100 121q-21 25 -71 73q-45 44 -55 58q-13 17 -16 30t2 25q3 9 14 27l58 85
q68 101 114 179q63 108 74 156z" />
    <glyph glyph-name="yandex" unicode="&#x42f;" horiz-adv-x="580" 
d="M456 306h-68q-89 0 -149.5 56t-60.5 168q0 117 57 176t139 59h82v-459zM563 850h-185q-143 0 -238.5 -87.5t-95.5 -245.5q0 -99 53.5 -170.5t153.5 -107.5l-248 -368q-6 -9 -1.5 -15t14.5 -6h115q15 0 19 9l225 362h81v-362q0 -9 11 -9h101q13 0 13 11v976q0 13 -18 13v0
z" />
    <glyph glyph-name="vk-d" unicode="&#x432;" 
d="M196 850q-81 0 -138.5 -57.5t-57.5 -138.5v-608q0 -81 57.5 -138.5t138.5 -57.5h608q81 0 138.5 57.5t57.5 138.5v608q0 81 -57.5 138.5t-138.5 57.5h-608zM308 624h197q66 0 94 -4q35 -7 59 -20q30 -17 45 -43q15 -27 15 -63q0 -40 -21 -72q-19 -31 -56 -47v-3
q53 -13 83 -45q31 -32 31 -90q0 -42 -16 -73q-15 -32 -42 -53q-33 -25 -70 -35q-36 -10 -95 -10h-224v558zM448 522v-118h17h51q16 2 30 8q17 8 23 22t6 32q0 15 -7 28q-5 13 -21 21q-15 6 -33 6q-13 1 -57 1h-9zM448 308v-140h7q62 0 76 1q18 0 43 10q19 9 28 24q8 15 8 36
q0 27 -10 41t-32 22q-12 4 -35 6h-59h-26z" />
    <glyph glyph-name="home-d" unicode="&#x434;" horiz-adv-x="1041" 
d="M521 819q322 -279 500 -429q20 -16 20 -40q0 -21 -15 -37t-36 -15h-105v-364q0 -21 -15 -37t-36 -16h-156q-22 0 -37 16t-16 37v208h-209v-208q0 -21 -15 -37t-36 -16h-156q-21 0 -37 16t-16 37v364h-103q-22 0 -37 15t-16 37t19 40z" />
    <glyph glyph-name="sitemap-d" unicode="&#x43a;" 
d="M1000 154v-179q0 -22 -16 -38t-38 -16h-178q-22 0 -38 16t-16 38v179q0 22 16 38t38 15h53v107h-285v-107h53q23 0 38 -15t16 -38v-179q0 -22 -16 -38t-38 -16h-178q-23 0 -38 16t-16 38v179q0 22 16 38t38 15h53v107h-285v-107h53q22 0 38 -15t16 -38v-179
q0 -22 -16 -38t-38 -16h-178q-23 0 -38 16t-16 38v179q0 22 16 38t38 15h53v107q0 29 21 51t51 21h285v107h-53q-23 0 -38 15t-16 38v179q0 22 16 38t38 16h178q23 0 38 -16t16 -38v-179q0 -22 -16 -38t-38 -15h-53v-107h285q29 0 51 -21t21 -51v-107h53q23 0 38 -15t16 -38
z" />
    <glyph glyph-name="odnoklassniki-d" unicode="&#x43e;" 
d="M141 850q-59 0 -100 -41t-41 -100v-718q0 -59 41 -100t100 -41h718q59 0 100 41t41 100v718q0 59 -41 100t-100 41h-718zM522 748q86 0 146 -60t60 -146q0 -85 -60.5 -145.5t-145.5 -60.5t-145 60.5t-60 145.5t60 145.5t145 60.5zM520 627q-34 -1 -58.5 -25.5
t-24.5 -59.5t25 -60t60 -25t60.5 25t25.5 60t-25.5 60t-60.5 25h-2zM352 329q17 0 32 -9q63 -40 138.5 -40t138.5 40q21 13 45 7.5t38 -26.5q13 -21 7.5 -45t-26.5 -38q-56 -35 -119 -50l115 -115q17 -17 17 -42t-17 -43q-18 -17 -43 -17t-42 17l-114 113l-113 -113
q-17 -18 -42 -18t-43 18q-17 18 -17 43t17 42l115 115q-63 15 -119 50q-21 14 -26.5 38t7.5 45q17 28 49 28h2z" />
    <glyph glyph-name="rub-2" unicode="&#x440;" horiz-adv-x="709" 
d="M90 316v42h98v50h-98v42h98v250q0 43 -28 52q-22 8 -70 13v35h321q96 0 157 -47q61 -48 61 -126q0 -108 -81 -167q-71 -52 -176 -52h-79v-50h309v-42h-309v-121q0 -39 29 -50q5 -3 31 -6l42 -4v-35h-301v35l34 3q21 1 32 7q28 12 28 50v121h-98zM293 450h50q97 0 136 58
q28 41 28 94q0 68 -30 109q-36 48 -114 48h-70v-309z" />
    <glyph glyph-name="search" unicode="&#x441;" 
d="M746 209l254 -255l-105 -105l-254 254q-106 -72 -232 -72q-169 0 -289 120t-120 289t120 289t289 120t289 -120t120 -289q0 -127 -72 -231zM681 440q0 113 -79 193t-193 80t-193 -80t-80 -193t80 -192t193 -80t193 80t79 192z" />
    <glyph glyph-name="conversation" unicode="&#x44e;" 
d="M667 267h21q26 0 44 19t18 43v375q0 26 -18 45t-44 18h-542q-26 0 -44 -18t-19 -45v-604l223 167h361zM278 350l-111 -83v416h500v-333h-389zM854 517h-21v-250q0 -34 -24 -58t-59 -26h-417v-20q0 -26 19 -44t44 -19h299l222 -167v521q0 26 -18 45t-45 18z" />
    <glyph glyph-name="yandex-d" unicode="&#x44f;" 
d="M177 850q-73 0 -125 -52t-52 -125v-646q0 -73 52 -125t125 -52h475l348 500l-348 500h-475zM443 667h113q11 0 11 -8v-622q0 -7 -8 -7h-61q-7 0 -7 6v230h-50l-137 -230q-3 -6 -12 -6h-71q-6 0 -8 4t1 10l151 234q-127 49 -127 177q0 101 58.5 156.5t146.5 55.5zM440 613
q-50 0 -84.5 -37.5t-34.5 -112.5q0 -71 37 -106.5t91 -35.5h42v292h-51z" />
    <glyph glyph-name="euro" unicode="&#x20a0;" horiz-adv-x="571" 
d="M545 121l19 -89q2 -7 -1 -13t-10 -8h-3q-2 -1 -6 -2t-9 -3t-12 -3t-14 -3t-17 -2t-18 -3t-21 -2t-21 0q-131 0 -228 73t-133 196h-53q-7 0 -13 5t-5 13v63q0 7 5 12t13 6h37q-1 31 0 58h-37q-8 0 -13 5t-5 13v64q0 7 5 13t13 5h55q37 117 135 188t224 72q57 0 108 -13
q6 -2 11 -9q4 -6 2 -13l-24 -89q-2 -7 -8 -11t-13 -1l-2 1q-3 0 -7 1l-10 2l-12 2l-15 2l-16 1h-16q-71 0 -126 -35t-84 -98h261q9 0 14 -7q6 -7 4 -15l-13 -63q-3 -15 -18 -15h-273q-1 -20 0 -58h256q9 0 14 -7t4 -15l-14 -63q-1 -6 -6 -10t-11 -4h-216q27 -65 84 -104
t127 -38q10 0 20 1t19 2t16 2t14 3t10 3l7 1l3 2q7 2 14 -2t9 -11z" />
    <glyph glyph-name="left-big" unicode="&#x2190;" horiz-adv-x="857" 
d="M857 350v-71q0 -30 -18 -51t-47 -21h-393l164 -164q21 -20 21 -50t-21 -50l-42 -43q-21 -20 -51 -20q-29 0 -50 20l-364 364q-20 21 -20 50t20 51l364 363q21 21 50 21t51 -21l42 -42q21 -21 21 -50t-21 -51l-164 -164h393q29 0 47 -20t18 -51z" />
    <glyph glyph-name="up-big" unicode="&#x2191;" horiz-adv-x="928" 
d="M899 308q0 -28 -21 -50l-42 -42q-21 -21 -50 -21q-30 0 -51 21l-164 164v-393q0 -29 -20 -47t-51 -19h-71q-30 0 -51 19t-21 47v393l-164 -164q-20 -21 -50 -21t-50 21l-42 42q-21 21 -21 50q0 30 21 51l363 363q20 21 50 21t51 -21l363 -363q21 -22 21 -51z" />
    <glyph glyph-name="right-big" unicode="&#x2192;" horiz-adv-x="857" 
d="M821 314q0 -30 -20 -50l-363 -364q-22 -20 -51 -20t-50 20l-42 42q-22 21 -22 51t22 51l163 163h-393q-29 0 -47 21t-18 51v71q0 30 18 51t47 20h393l-163 164q-22 21 -22 51t22 50l42 42q21 21 50 21t51 -21l363 -363q20 -20 20 -51z" />
    <glyph glyph-name="down-big" unicode="&#x2193;" horiz-adv-x="928" 
d="M899 386q0 -30 -21 -50l-363 -364q-22 -21 -51 -21t-50 21l-363 364q-21 20 -21 50q0 29 21 51l41 41q22 21 51 21t50 -21l164 -164v393q0 29 21 50t51 22h71q29 0 50 -22t21 -50v-393l164 164q21 21 51 21q29 0 50 -21l42 -42q21 -21 21 -50z" />
    <glyph glyph-name="plus" unicode="&#x2295;" 
d="M542 558h-84v-166h-166v-84h166v-166h84v166h166v84h-166v166zM500 767q-113 0 -210 -57q-95 -55 -150 -150q-57 -97 -57 -210t57 -210q55 -95 150 -150q97 -57 210 -57t210 57q95 55 150 150q57 97 57 210t-57 210q-55 95 -150 150q-97 57 -210 57zM500 17
q-91 0 -168 45q-75 45 -120 120q-45 77 -45 168t45 168q45 75 120 120q77 45 168 45t168 -45q75 -45 120 -120q45 -77 45 -168t-45 -168q-45 -75 -120 -120q-77 -45 -168 -45z" />
    <glyph glyph-name="stop" unicode="&#x25a0;" horiz-adv-x="857" 
d="M857 743v-786q0 -14 -10 -25t-26 -11h-785q-15 0 -25 11t-11 25v786q0 14 11 25t25 11h785q15 0 26 -11t10 -25z" />
    <glyph glyph-name="up-dir" unicode="&#x25b2;" horiz-adv-x="571" 
d="M571 171q0 -14 -10 -25t-25 -10h-500q-15 0 -25 10t-11 25t11 26l250 250q10 10 25 10t25 -10l250 -250q10 -11 10 -26z" />
    <glyph glyph-name="eject" unicode="&#x25b3;" horiz-adv-x="858" 
d="M8 304l396 396q11 10 25 10t25 -10l396 -396q11 -11 8 -18t-18 -8h-822q-14 0 -17 8t7 18zM822 -7h-786q-14 0 -25 10t-10 26v142q0 15 10 26t25 10h786q14 0 25 -10t11 -26v-142q0 -15 -11 -26t-25 -10z" />
    <glyph glyph-name="right-dir" unicode="&#x25b6;" horiz-adv-x="357" 
d="M321 350q0 -14 -10 -25l-250 -250q-11 -11 -25 -11t-25 11t-11 25v500q0 15 11 25t25 11t25 -11l250 -250q10 -10 10 -25z" />
    <glyph glyph-name="play" unicode="&#x25b7;" horiz-adv-x="785" 
d="M772 333l-741 -412q-13 -7 -22 -2t-9 20v822q0 14 9 20t22 -2l741 -412q13 -7 13 -17t-13 -17z" />
    <glyph glyph-name="down-dir" unicode="&#x25bc;" horiz-adv-x="571" 
d="M571 457q0 -14 -10 -25l-250 -250q-11 -11 -25 -11t-25 11l-250 250q-11 11 -11 25t11 25t25 11h500q14 0 25 -11t10 -25z" />
    <glyph glyph-name="left-dir" unicode="&#x25c0;" horiz-adv-x="357" 
d="M357 600v-500q0 -14 -10 -25t-26 -11t-25 11l-250 250q-10 11 -10 25t10 25l250 250q11 11 25 11t26 -11t10 -25z" />
    <glyph glyph-name="download" unicode="&#x2b73;" 
d="M496 192l160 202h-120v282h-80v-282h-120zM815 111h-639v283h-80v-283q0 -33 24 -56t56 -24h639q33 0 57 24t23 56v283h-80v-283z" />
    <glyph glyph-name="vk-2" unicode="&#xe800;" horiz-adv-x="1220" 
d="M0 654q10 8 25 12q14 4 25 4h9q10 0 24 -1q22 -1 32 -1q6 0 38 2q16 1 29 1t23 -1q20 -2 32 -8q6 -3 13 -13t12 -19t11 -25t10 -22q38 -82 94 -163q2 -3 7 -11t9 -12t9 -12t10 -11t11 -8t11 -6t12 0q28 5 31 117q1 19 1 35q0 74 -15 102q-6 11 -15 18t-25 12t-23 10
q14 28 50 37t96 9h53h26l27 -3l22 -6l20 -9l12 -14q9 -18 11 -42q0 -7 1 -14q0 -20 -3 -52q-4 -42 -4 -52q-3 -23 -3 -46q0 -18 2 -38q4 -44 30 -61q9 1 17 4t15 11t11 12t13 16t10 14q47 62 94 163l9 23l12 26l12 20l15 13q16 7 38 7h9q20 0 46 -2q32 -2 47 -2q9 0 28 1
t32 2t30 -1t25 -6t14 -13q3 -6 3 -13q0 -29 -35 -87q-17 -29 -34 -52t-46 -58t-37 -47q-2 -2 -14 -18t-17 -24t-12 -22t-5 -27q0 -8 3 -15t10 -15t10 -12t13 -13t12 -11q71 -65 112 -117q40 -52 40 -75q0 -33 -51 -41q-26 -4 -53 -4q-21 0 -43 3q-20 2 -37 2q-26 0 -45 -5
h-6q-66 11 -139 94q-4 4 -17 21t-22 25t-23 17t-27 6q-23 -4 -30 -29t-9 -59t-10 -49q-13 -24 -79 -24q-28 0 -66 4q-78 8 -141 40t-101 68t-81 92q-104 133 -197 322q-3 6 -11 23t-12 25t-9 24t-8 28t-3 26z" />
    <glyph glyph-name="soundcoud" 
d="M835 403q-16 0 -42 -8q-9 70 -61 116.5t-124 46.5q-71 0 -122 -45v-319h345v1q54 4 80 32t26 72t-29 74t-73 30zM413 488v-294h54v301l-16 -22zM358 494v-300h36v300q-4 0 -11 0.5t-11 0.5q-11 0 -14 -1zM285 194h36v293q-22 -7 -36 -18v-275zM212 374v-180h37v241
q-22 -29 -30 -65q-2 2 -7 4zM139 383v-186q13 -3 28 -3h9v190q-2 2 -9 2q-1 0 -28 -3zM68 289q0 -41 35 -73v146q-35 -32 -35 -73z" />
    <glyph glyph-name="clock" 
d="M1000 349q0 -136 -67 -251t-182 -182t-251 -67t-251 67t-182 182t-67 251t67 251t182 182t251 67t251 -67t182 -182t67 -251zM883 349q0 158 -112 271t-271 112q-126 0 -226 -74l2 -2q-48 -35 -83 -83l-2 2q-74 -100 -74 -226q0 -158 113 -270t270 -113q126 0 226 74
l-2 2q48 35 83 83l2 -2q74 100 74 226zM680 149q0 -25 -17 -42t-43 -18q-26 0 -42 18l-120 120q-18 18 -18 62v320q0 25 18 43t42 17t43 -17t17 -43v-315l102 -103q18 -16 18 -42z" />
  </font>
</defs>
</svg>
